<svg fill="#4F4C4D" height="24" viewBox="0 0 24 24" width="24" xmlns="http://www.w3.org/2000/svg"><g stroke="#231F20" stroke-width="1.5"><path d="m2.35139 13.2135c-.35302-2.2973-.52953-3.44587-.09522-4.46412.4343-1.01826 1.39786-1.71495 3.32497-3.10832l1.43985-1.04106c2.3973-1.73333 3.59591-2.6 4.97901-2.6s2.5817.86667 4.979 2.6l1.4399 1.04106c1.9271 1.39337 2.8906 2.09006 3.3249 3.10832.4343 1.01825.2578 2.16682-.0952 4.46412l-.301 1.9589c-.5005 3.2565-.7507 4.8848-1.9186 5.8562s-2.8753.9714-6.2902.9714h-2.2776c-3.41487 0-5.12229 0-6.2902-.9714s-1.41813-2.5997-1.91857-5.8562z" stroke-linejoin="round"/><path d="m15 17c-.7995.6224-1.8498 1-3 1s-2.20048-.3776-3-1" stroke-linecap="round"/></g></svg>